HIERARCHY
ROOT joint_Root
{
	OFFSET 0.0 0.0 0.0
	CHANNELS 6 Xposition Yposition Zposition Zrotation Xrotation Yrotation 
	JOINT Hips
	{
		OFFSET 4.5925 91.4895 -427.239
		CHANNELS 6 Xposition Yposition Zposition Zrotation Xrotation Yrotation 
		JOINT Spine
		{
			OFFSET 15.7357 0.0 0.0
			CHANNELS 6 Xposition Yposition Zposition Zrotation Xrotation Yrotation 
			JOINT Chest
			{
				OFFSET 8.98455 -0.406207 0.0
				CHANNELS 6 Xposition Yposition Zposition Zrotation Xrotation Yrotation 
				JOINT Neck
				{
					OFFSET 16.3773 0.0 0.0
					CHANNELS 6 Xposition Yposition Zposition Zrotation Xrotation Yrotation 
					JOINT Head
					{
						OFFSET 6.45672 0.0 0.0
						CHANNELS 6 Xposition Yposition Zposition Zrotation Xrotation Yrotation 
						End Site
						{
							OFFSET 0.0 0.0 0.0
						}
					}
				}
				JOINT Shoulder_L
				{
					OFFSET 12.9942 -0.242716 4.98039
					CHANNELS 6 Xposition Yposition Zposition Zrotation Xrotation Yrotation 
					JOINT UpperArm_L
					{
						OFFSET 5.34809 0.0 0.0
						CHANNELS 6 Xposition Yposition Zposition Zrotation Xrotation Yrotation 
						JOINT LowerArm_L
						{
							OFFSET 24.3286 1.87007e-05 0.0
							CHANNELS 6 Xposition Yposition Zposition Zrotation Xrotation Yrotation 
							JOINT Hand_L
							{
								OFFSET 22.2916 0.0 0.0
								CHANNELS 6 Xposition Yposition Zposition Zrotation Xrotation Yrotation 
								End Site
								{
									OFFSET 0.0 0.0 0.0
								}
							}
						}
					}
				}
				JOINT Shoulder_R
				{
					OFFSET 12.9945 -0.242716 -4.98039
					CHANNELS 6 Xposition Yposition Zposition Zrotation Xrotation Yrotation 
					JOINT UpperArm_R
					{
						OFFSET -5.34813 0.0 0.0
						CHANNELS 6 Xposition Yposition Zposition Zrotation Xrotation Yrotation 
						JOINT LowerArm_R
						{
							OFFSET -24.3289 0.000322201 0.0
							CHANNELS 6 Xposition Yposition Zposition Zrotation Xrotation Yrotation 
							JOINT Hand_R
							{
								OFFSET -22.2915 -0.000108084 0.0
								CHANNELS 6 Xposition Yposition Zposition Zrotation Xrotation Yrotation 
								End Site
								{
									OFFSET 0.0 0.0 0.0
								}
							}
						}
					}
				}
			}
		}
		JOINT UpperLeg_L
		{
			OFFSET -2.19248 -6.46944 0.0
			CHANNELS 6 Xposition Yposition Zposition Zrotation Xrotation Yrotation 
			JOINT LowerLeg_L
			{
				OFFSET 39.0811 0.0 -1.23785e-05
				CHANNELS 6 Xposition Yposition Zposition Zrotation Xrotation Yrotation 
				JOINT Foot_L
				{
					OFFSET 40.9854 0.0 -1.26872e-05
					CHANNELS 6 Xposition Yposition Zposition Zrotation Xrotation Yrotation 
					JOINT Toes_L
					{
						OFFSET 11.7543 0.0 0.0
						CHANNELS 6 Xposition Yposition Zposition Zrotation Xrotation Yrotation 
						End Site
						{
							OFFSET 0.0 0.0 0.0
						}
					}
				}
			}
		}
		JOINT UpperLeg_R
		{
			OFFSET -2.19251 6.46944 0.0
			CHANNELS 6 Xposition Yposition Zposition Zrotation Xrotation Yrotation 
			JOINT LowerLeg_R
			{
				OFFSET -39.0811 -0.00228153 -0.0401928
				CHANNELS 6 Xposition Yposition Zposition Zrotation Xrotation Yrotation 
				JOINT Foot_R
				{
					OFFSET -40.9854 0.0 0.0
					CHANNELS 6 Xposition Yposition Zposition Zrotation Xrotation Yrotation 
					JOINT Toes_R
					{
						OFFSET -11.7543 0.0 0.0
						CHANNELS 6 Xposition Yposition Zposition Zrotation Xrotation Yrotation 
						End Site
						{
							OFFSET 0.0 0.0 0.0
						}
					}
				}
			}
		}
	}
}
MOTION
Frames:	4
Frame Time:	0.0333333
0.000000 0.000000 0.000000 0.000000 0.000000 -0.000000 4.644470 90.145100 1.969340 88.699400 -7.307720 13.308600 15.735700 0.000005 -0.000001 98.400500 83.008400 -100.686000 8.984550 -0.406207 -0.000000 6.115770 2.070060 -4.676070 16.377300 -0.000001 -0.000001 27.960100 -1.536660 4.305870 6.456720 -0.000001 -0.000000 16.280200 -2.972660 -12.893200 12.994200 -0.242716 4.980390 -91.448500 4.711820 -72.890600 5.348090 -0.000007 -0.000001 -62.780200 35.537700 -11.428200 24.328600 0.000019 0.000005 8.180030 25.204800 -18.652000 22.291600 -0.000001 0.000005 11.060200 5.234240 1.845900 12.994500 -0.242716 -4.980390 92.096600 -6.118760 -71.044400 -5.348130 -0.000001 -0.000004 -38.526200 -44.207900 -100.475000 -24.328900 0.000322 -0.000009 3.217860 2.312240 -54.346700 -22.291500 -0.000108 -0.000004 22.421800 5.480470 -5.766700 -2.192480 -6.469440 -0.000000 -176.188000 -15.962200 4.925610 39.081100 -0.000007 -0.000012 -0.122868 0.193320 32.439100 40.985400 -0.000006 -0.000013 3.543270 2.405660 -74.191200 11.754300 -0.000000 0.000003 -0.000193 -0.001799 -16.645500 -2.192510 6.469440 -0.000001 169.991000 17.438000 -175.614000 -39.081100 -0.002282 -0.040193 -0.148158 0.247365 31.478400 -40.985400 0.000008 0.000006 1.081860 14.310500 -71.195600 -11.754300 -0.000006 -0.000006 -0.002912 -0.039606 -18.183800
0.000000 0.000000 0.000000 0.000000 0.000000 -0.000000 4.590840 90.149900 2.037730 88.673900 -6.959330 13.235500 15.735700 0.000005 -0.000001 98.933000 83.008800 -101.288000 8.984550 -0.406207 -0.000000 6.099890 2.199410 -4.822090 16.377300 -0.000001 -0.000001 27.812400 -1.400480 4.162510 6.456720 -0.000001 -0.000000 16.256200 -2.885950 -13.064400 12.994200 -0.242716 4.980390 -91.458200 4.711180 -72.779700 5.348090 -0.000007 -0.000001 -62.604100 35.183800 -11.161200 24.328600 0.000019 0.000005 8.185240 25.592200 -18.417100 22.291600 -0.000001 0.000005 11.187200 5.232630 1.887300 12.994500 -0.242716 -4.980390 92.077500 -6.067100 -71.057400 -5.348130 -0.000001 -0.000004 -38.900900 -44.614000 -99.833700 -24.328900 0.000322 -0.000009 2.970400 2.174270 -53.839200 -22.291500 -0.000108 -0.000004 22.482900 5.482700 -5.852040 -2.192480 -6.469440 -0.000000 -176.170000 -15.756800 4.881710 39.081100 -0.000007 -0.000012 -0.123700 0.194750 32.423000 40.985400 -0.000006 -0.000013 3.548950 2.567080 -74.210500 11.754300 -0.000000 0.000003 -0.000213 -0.001955 -16.651200 -2.192510 6.469440 -0.000001 169.993000 17.704100 -175.520000 -39.081100 -0.002282 -0.040193 -0.139685 0.234008 31.425900 -40.985400 0.000008 0.000006 1.203900 14.198400 -71.293400 -11.754300 -0.000006 -0.000006 -0.002877 -0.039207 -18.167600
0.000000 0.000000 0.000000 0.000000 0.000000 -0.000000 4.560310 90.149700 2.101040 88.671500 -6.637590 13.137900 15.735700 0.000005 -0.000001 99.410500 83.016100 -101.851000 8.984550 -0.406207 -0.000000 6.071750 2.313630 -4.998880 16.377300 -0.000001 -0.000001 27.686500 -1.251640 3.940850 6.456720 -0.000001 -0.000000 16.197100 -2.681730 -13.227100 12.994200 -0.242716 4.980390 -91.469000 4.717470 -72.681400 5.348090 -0.000007 -0.000001 -62.443600 34.676000 -10.854500 24.328600 0.000019 0.000005 8.243910 25.828300 -18.394500 22.291600 -0.000001 0.000005 11.067000 5.226460 2.046880 12.994500 -0.242716 -4.980390 92.050500 -6.001520 -71.096600 -5.348130 -0.000001 -0.000004 -39.203300 -45.238000 -98.653000 -24.328900 0.000322 -0.000009 2.897540 2.175670 -53.140100 -22.291500 -0.000108 -0.000004 22.437200 5.479250 -5.719690 -2.192480 -6.469440 -0.000000 -176.231000 -15.480100 4.779320 39.081100 -0.000007 -0.000012 -0.127594 0.200858 32.425800 40.985400 -0.000006 -0.000013 3.533940 2.607240 -74.224200 11.754300 -0.000000 0.000003 -0.000221 -0.002011 -16.653200 -2.192510 6.469440 -0.000001 169.966000 17.959900 -175.477000 -39.081100 -0.002282 -0.040193 -0.136490 0.229051 31.395800 -40.985400 0.000008 0.000006 1.225970 14.080900 -71.364800 -11.754300 -0.000006 -0.000006 -0.002876 -0.039189 -18.166800
0.000000 0.000000 0.000000 0.000000 0.000000 -0.000000 4.543030 90.149400 2.190240 88.664000 -6.421920 13.065200 15.735700 0.000005 -0.000001 99.968800 83.026000 -102.495000 8.984550 -0.406207 -0.000000 6.034670 2.446150 -5.176610 16.377300 -0.000001 -0.000001 27.574800 -1.072460 3.714020 6.456720 -0.000001 -0.000000 16.093300 -2.405970 -13.448500 12.994200 -0.242716 4.980390 -91.477300 4.701040 -72.532400 5.348090 -0.000007 -0.000001 -62.232100 34.410100 -10.652200 24.328600 0.000019 0.000005 8.158630 25.759800 -18.256500 22.291600 -0.000001 0.000005 11.007800 5.221880 2.164680 12.994500 -0.242716 -4.980390 92.019700 -5.921920 -71.128900 -5.348130 -0.000001 -0.000004 -39.416100 -45.954600 -97.021400 -24.328900 0.000322 -0.000009 2.629000 2.041360 -52.209100 -22.291500 -0.000108 -0.000004 22.441000 5.480970 -5.785560 -2.192480 -6.469440 -0.000000 -176.212000 -15.472500 4.784970 39.081100 -0.000007 -0.000012 -0.125066 0.197179 32.386300 40.985400 -0.000006 -0.000013 3.574710 2.779440 -74.268200 11.754300 -0.000000 0.000003 -0.000220 -0.002009 -16.653100 -2.192510 6.469440 -0.000001 169.970000 18.060100 -175.415000 -39.081100 -0.002282 -0.040193 -0.127070 0.213843 31.368600 -40.985400 0.000008 0.000006 1.419170 13.953200 -71.505600 -11.754300 -0.000006 -0.000006 -0.002978 -0.040347 -18.214000
